<svg width="79" height="70" viewBox="0 0 79 70" fill="none" xmlns="http://www.w3.org/2000/svg">
<path fill-rule="evenodd" clip-rule="evenodd" d="M45.3832 0.94925C45.28 0.975514 45.0451 1.00034 44.8611 1.0044C44.6771 1.00847 44.4379 1.05143 44.3295 1.09983C43.0091 1.68969 42.801 1.7541 42.1939 1.76091C41.5582 1.7681 41.3484 1.84533 41.0568 2.17981C40.9129 2.34483 40.7797 2.56457 40.7609 2.66818C40.7223 2.88004 40.8763 3.69001 40.9736 3.78737C41.0085 3.8222 41.037 3.91613 41.037 3.9961C41.037 4.17388 40.8621 4.24954 40.2827 4.32233C40.0539 4.35103 39.8129 4.40331 39.7473 4.43845C39.6816 4.4736 39.4268 4.54394 39.1811 4.59478C38.5685 4.7216 38.2192 4.92864 37.5226 5.57809C37.0335 6.03413 36.8788 6.22554 36.6608 6.64451C36.4208 7.10586 36.3985 7.18597 36.4301 7.47574C36.4969 8.08836 36.5896 8.38964 36.76 8.54759C36.9523 8.72568 36.9492 8.73256 36.4582 9.22444C36.0797 9.6035 35.867 9.99701 35.9599 10.1458C36.0549 10.2979 36.1079 10.66 36.0484 10.7496C36.012 10.8043 35.9355 10.8104 35.7813 10.7708C35.6624 10.7404 35.3652 10.6976 35.1208 10.6757L34.6763 10.6358L34.5423 10.9474C34.3914 11.2981 34.3595 11.967 34.481 12.2336C34.5932 12.4799 34.9238 12.54 36.1905 12.5447C37.225 12.5486 37.3369 12.56 37.5724 12.6859C37.8395 12.8289 38.0353 13.0644 38.0353 13.2427C38.0353 13.3275 37.9932 13.34 37.8087 13.3101C37.6841 13.2899 37.5286 13.225 37.4632 13.1658C37.3815 13.0918 37.174 13.0432 36.7987 13.0101C36.4986 12.9837 36.1756 12.9431 36.0808 12.9201C35.9217 12.8813 35.8984 12.9011 35.7751 13.1799C35.5915 13.595 35.4635 14.478 35.5404 14.8C35.5731 14.9376 35.6203 15.2604 35.6451 15.5174C35.7025 16.1112 35.7677 16.1557 36.4232 16.0483C36.6736 16.0072 36.9558 15.9528 37.0504 15.9272C37.2741 15.8667 37.2785 15.9886 37.066 16.3691C36.8729 16.7151 36.8692 16.9554 37.0504 17.4043C37.1842 17.7359 37.4045 17.9779 37.9892 18.4358C38.1184 18.537 38.1604 18.6243 38.1604 18.7917C38.1604 18.9137 38.1322 19.0309 38.0979 19.0522C38.0635 19.0734 38.0353 19.1501 38.0353 19.2226C38.0353 19.2951 38.0191 19.3382 37.9994 19.3184C37.9795 19.2987 37.874 19.3097 37.7649 19.3429C37.6557 19.3761 37.5006 19.4167 37.4204 19.4332C37.2609 19.4657 36.8669 19.8534 36.7907 20.0527C36.7645 20.1214 36.7497 20.3536 36.7579 20.5685C36.7702 20.8921 36.8133 21.0287 37.0089 21.3629C37.2791 21.8249 37.5173 21.9776 37.7455 21.835C38.0179 21.6647 38.4631 21.4596 38.5603 21.4596C38.6155 21.4596 38.6607 21.5028 38.6607 21.5556C38.6607 21.7386 38.4516 21.9693 38.166 22.1016C38.0081 22.1747 37.7991 22.2923 37.7015 22.363C37.5287 22.488 37.5252 22.5022 37.5672 22.8952C37.5994 23.1968 37.6625 23.3805 37.8166 23.6214C37.93 23.7987 38.0329 23.9969 38.0453 24.0618C38.0608 24.144 38.1309 24.1858 38.2768 24.1998C38.4671 24.2181 38.5293 24.1742 38.9642 23.7144C39.6266 23.0142 39.6976 23.0179 40.0777 23.7733C40.1383 23.8937 40.2285 24.0414 40.2781 24.1016C40.3818 24.2271 40.6637 24.2467 40.7743 24.136C40.8327 24.0776 40.8494 24.0841 40.8494 24.1651C40.8494 24.4625 41.4391 24.4738 42.09 24.1889C42.6329 23.9512 43.0381 23.8543 43.0381 23.9622C43.0381 24.0005 42.9711 24.1213 42.8892 24.2308C42.8073 24.3403 42.6348 24.6357 42.5059 24.8874C42.3026 25.284 42.2809 25.3658 42.3429 25.5017C42.3822 25.588 42.4001 25.6817 42.3826 25.71C42.3652 25.7382 42.4 25.8188 42.46 25.8891C42.5542 25.9993 42.688 26.0258 43.4367 26.0824C44.2422 26.1432 44.3246 26.1614 44.5887 26.3363C44.8543 26.5122 45.0293 26.553 45.4144 26.5286C45.7052 26.5102 45.8823 26.3912 46.2183 25.9888C46.4975 25.6544 46.6059 25.572 46.8706 25.4934C47.4393 25.3245 47.5943 25.3729 47.9031 25.8152C47.9789 25.9237 48.0409 26.0681 48.0409 26.1362C48.0409 26.2933 48.1957 26.3352 48.7798 26.3362C49.2351 26.3371 49.4075 26.2866 49.6075 26.0942C49.8122 25.8971 49.8661 25.7054 49.8445 25.2519C49.8241 24.8246 49.8295 24.8042 49.9686 24.7845C50.1555 24.758 50.4591 25.0958 50.7402 25.643C50.9408 26.0335 50.9457 26.0622 50.9446 26.8311C50.9434 27.6436 50.848 28.4926 50.734 28.7057C50.6908 28.7864 50.6269 28.816 50.5431 28.7941C50.4739 28.7761 50.4172 28.7411 50.4172 28.7164C50.4172 28.6918 50.167 28.4136 49.8612 28.0984C49.3705 27.5925 49.2797 27.5252 49.0879 27.5252C48.9629 27.5252 48.8008 27.5802 48.706 27.6548C48.484 27.8293 48.4899 28.1085 48.7261 28.6137C48.9026 28.9912 48.9332 29.0208 49.3984 29.2643C49.6664 29.4045 50.0212 29.6447 50.1868 29.7979L50.4878 30.0765L50.4559 30.4226C50.4199 30.8128 50.245 31.1999 50.0415 31.3396C49.9664 31.3912 49.8611 31.4644 49.8073 31.5023C49.6014 31.6476 49.7175 32.1283 50.0998 32.7136C50.3143 33.042 50.3254 33.0866 50.3703 33.8079C50.4336 34.8213 50.4296 34.9502 50.3157 35.546C50.2617 35.8291 50.2029 36.1592 50.1851 36.2796C50.1471 36.5372 50.0067 36.7173 49.844 36.7173C49.7803 36.7173 49.4399 36.445 49.0877 36.1122C48.7355 35.7794 48.4192 35.4827 48.3849 35.4528C48.3505 35.4229 48.3056 35.0832 48.2851 34.6978C48.2468 33.9772 48.1088 33.3597 47.9657 33.269C47.7599 33.1384 47.6244 33.2149 47.2991 33.6453C47.2178 33.7529 47.1139 33.8409 47.0681 33.8409C46.9067 33.8409 46.7902 33.5721 46.7902 33.1996C46.7902 32.9998 46.7464 32.7318 46.693 32.6039C46.6395 32.476 46.5693 32.1635 46.5371 31.9093C46.4537 31.2531 46.3104 31.1259 46.0018 31.4345L45.8443 31.5919L45.8639 32.7007L45.8835 33.8096L46.1492 34.2328C46.2954 34.4656 46.415 34.6777 46.415 34.7042C46.415 34.7307 46.5419 34.8584 46.697 34.988C46.8521 35.1177 47.0345 35.3328 47.1026 35.4661C47.1705 35.5993 47.4645 35.9636 47.7556 36.2755C48.0469 36.5874 48.4136 37.0325 48.5705 37.2646C48.7275 37.4967 48.9836 37.865 49.1396 38.0832C49.3436 38.3685 49.4413 38.5788 49.488 38.8335C49.5236 39.0281 49.5765 39.2436 49.6055 39.3124C49.8128 39.8049 49.8282 40.2096 49.7554 43.2381C49.721 44.6696 49.6881 45.1905 49.6271 45.2704C49.553 45.3677 49.5006 45.3324 49.0776 44.9009C48.7893 44.6068 48.5429 44.4104 48.4349 44.3888C48.3386 44.3695 48.1814 44.3345 48.0856 44.311C47.9612 44.2805 47.8764 44.3 47.7886 44.3795C47.6358 44.5177 47.6361 44.5863 47.7908 44.7839C47.8581 44.8699 47.9145 45.0387 47.9162 45.1591C47.9188 45.3466 47.9558 45.4004 48.1745 45.5343C48.395 45.6692 48.7913 46.132 48.7913 46.2544C48.7913 46.2769 48.8731 46.4688 48.9731 46.6809C49.4972 47.7922 49.5163 47.867 49.5703 49.0113C49.6004 49.6506 49.5931 49.7147 49.4773 49.8195C49.3598 49.9258 49.1846 49.9329 46.8045 49.9273C43.7191 49.9201 42.0276 49.9233 41.4435 49.9374C41.2027 49.9432 39.7303 49.958 38.1715 49.9704L35.3372 49.9927L34.9353 49.5944C34.5217 49.1845 34.4596 49.0605 34.634 48.9935C34.7746 48.9396 34.8913 48.9421 36.4169 49.032C37.9226 49.1207 38.0353 49.1037 38.0353 48.7873C38.0353 48.656 37.9339 48.4872 37.6707 48.1798C37.4703 47.9457 37.1881 47.5853 37.0438 47.379C36.8994 47.1726 36.646 46.8422 36.4807 46.6447C36.3154 46.4471 36.1053 46.1375 36.0137 45.9566C35.9222 45.7758 35.6968 45.4731 35.5127 45.284C35.2141 44.9773 34.8457 44.5056 33.7351 43.008C33.554 42.7638 33.3486 42.4969 33.2788 42.4147C33.2089 42.3326 33.1601 42.2221 33.1703 42.1691C33.1948 42.0419 33.4551 41.9769 33.7474 42.0251C33.8768 42.0463 34.5357 42.041 35.2117 42.013C36.2399 41.9706 36.4662 41.944 36.597 41.8501C36.8233 41.6877 36.8187 41.5742 36.5749 41.3037C35.8974 40.5516 35.3404 39.8858 35.0662 39.5C34.6932 38.9751 34.6122 38.8758 34.1251 38.3464C33.5438 37.7147 33.3914 37.4926 33.4381 37.3455C33.511 37.1157 33.6902 37.0581 34.9086 36.8728C35.7097 36.7509 35.762 36.7358 35.9028 36.5846C36.0643 36.4114 36.0226 36.322 35.5693 35.8702C35.3607 35.6622 35.0915 35.3757 34.9711 35.2335C34.8507 35.0911 34.3476 34.5629 33.853 34.0595C33.1961 33.391 32.9724 33.1257 33.0229 33.0751C33.128 32.97 34.3694 32.7841 34.9883 32.7808C35.5186 32.778 35.5391 32.7725 35.598 32.6175C35.7141 32.3122 35.6669 32.2065 35.2212 31.7731C34.9805 31.5389 34.7835 31.3197 34.7835 31.2858C34.7835 31.2519 34.513 30.9336 34.1825 30.5784C33.852 30.2232 33.5154 29.8295 33.4346 29.7034C33.3538 29.5774 33.2578 29.4557 33.2213 29.4331C33.1847 29.4105 33.0406 29.2374 32.9009 29.0485C32.7614 28.8594 32.4712 28.5168 32.2562 28.287C32.0412 28.0571 31.8115 27.7764 31.7459 27.6633C31.6421 27.484 31.6387 27.4498 31.7199 27.3984C31.7711 27.366 31.8834 27.3392 31.9694 27.3387C32.0554 27.3383 32.3087 27.2976 32.5322 27.2484C33.058 27.1326 33.868 27.024 34.202 27.0245C34.6869 27.0253 35.0973 26.9033 35.1737 26.7357C35.2555 26.5561 35.2834 26.5959 34.3458 25.5538C33.9846 25.1523 33.6294 24.7412 33.5563 24.6401C33.4832 24.539 33.3336 24.3577 33.2239 24.2371C33.1142 24.1165 32.7256 23.6463 32.3603 23.1921C31.4501 22.0604 30.8421 21.3237 30.7138 21.1973C30.6546 21.139 30.4803 20.9279 30.3263 20.7283C30.1724 20.5287 29.9304 20.2387 29.7885 20.0839C29.6466 19.9292 29.5306 19.7807 29.5306 19.7538C29.5306 19.7269 29.3969 19.5672 29.2335 19.3987C29.0702 19.2302 28.8943 19.0308 28.8427 18.9556C28.6154 18.6241 28.5272 18.538 28.4227 18.5453C28.2614 18.5565 28.1368 18.6512 28.0023 18.8646C27.9374 18.9677 27.767 19.1929 27.6239 19.3648C27.4807 19.5368 27.3124 19.79 27.2498 19.9276C27.1242 20.2034 26.8565 20.6089 26.6713 20.8037C26.6056 20.873 26.4517 21.084 26.3293 21.2727C26.2069 21.4615 26.0026 21.7144 25.8753 21.8348C25.748 21.9552 25.5431 22.2366 25.42 22.4601C25.2969 22.6837 25.1332 22.9369 25.0561 23.0229C24.979 23.1089 24.7828 23.3867 24.62 23.6403C24.3661 24.0359 23.7189 24.8553 23.5018 25.0559C23.4642 25.0906 23.3496 25.2876 23.2471 25.4936C23.1446 25.6996 23.0391 25.8962 23.0125 25.9306C22.7218 26.3072 22.4016 26.7911 22.4016 26.8537C22.4016 27.0436 22.6762 27.0991 23.8869 27.1538C24.5574 27.1841 25.1587 27.2257 25.2233 27.2462C25.4061 27.3043 25.3674 27.5828 25.1235 27.9658C25.004 28.1534 24.9055 28.3262 24.9046 28.3499C24.9037 28.3736 24.6682 28.7816 24.3811 29.2566C24.0942 29.7316 23.7751 30.275 23.6722 30.4642C23.3203 31.1109 22.5058 32.4962 22.3669 32.6841C22.2906 32.7872 22.1265 33.0937 22.0022 33.3651C21.5901 34.2649 21.6401 34.3159 22.9957 34.3768C23.555 34.4019 24.1031 34.4591 24.2386 34.5065C24.3719 34.5531 24.6612 34.5913 24.8815 34.5913C25.4392 34.5913 25.462 34.6919 25.0075 35.146C24.8136 35.3396 24.4964 35.709 24.3027 35.967C24.1089 36.2249 23.845 36.5485 23.7162 36.6861C23.5874 36.8236 23.2796 37.2035 23.0321 37.5303C22.4656 38.2781 21.9263 38.9257 21.3854 39.5081C21.1532 39.758 20.9633 40.0151 20.9633 40.0795C20.9633 40.144 20.8692 40.3072 20.7541 40.4424C20.5313 40.704 20.4005 40.9202 20.4005 41.0261C20.4005 41.2187 22.4332 41.4362 24.7777 41.4944C25.2097 41.5052 25.3126 41.5265 25.3284 41.6083C25.3402 41.6694 25.0574 41.9918 24.6095 42.428C22.7633 44.226 21.2539 45.6714 20.713 46.1596C19.5422 47.2162 19.1498 47.6287 19.1498 47.8026C19.1498 47.8922 19.1843 47.987 19.2265 48.0131C19.3414 48.084 20.6439 48.2074 22.0889 48.2841C22.794 48.3216 23.4834 48.381 23.621 48.4161C23.7586 48.4512 23.9948 48.4713 24.1458 48.461C24.6523 48.426 24.5976 48.5097 23.4465 49.5287C23.1126 49.8243 22.9658 49.9122 22.7587 49.9403C22.6139 49.9599 20.1873 49.9878 17.3664 50.0022C14.2626 50.0182 12.1761 50.0526 12.0822 50.0894C11.7452 50.2213 11.1604 50.9924 10.3533 52.3695C10.1354 52.7412 9.95713 53.0562 9.95713 53.0696C9.95713 53.091 9.59768 53.7094 9.42621 53.9831C9.39144 54.0385 9.25048 54.2857 9.11291 54.5325C8.97533 54.7793 8.61769 55.367 8.31809 55.8387C8.01854 56.3103 7.65797 56.9213 7.51689 57.1964C7.37575 57.4716 7.19496 57.7671 7.11504 57.853C6.97996 57.9984 6.44198 58.8558 5.86715 59.8419C5.73295 60.0721 5.58719 60.2886 5.54335 60.323C5.49951 60.3574 5.34536 60.6107 5.20078 60.8858C4.53066 62.1614 4.20898 62.7091 3.77686 63.3107C3.57381 63.5935 3.33655 63.9834 3.24963 64.1774C3.16271 64.3713 2.91538 64.8075 2.70007 65.1467C2.30072 65.7757 1.57744 67.0157 1.57744 67.0714C1.57744 67.1213 1.31111 67.4991 1.05865 67.8071C0.777684 68.15 0.0993052 69.4555 0.0412728 69.7651L0 69.985L0.647987 69.991C2.92076 70.012 15.9244 69.9944 17.9616 69.9675C18.3571 69.9623 20.4818 69.9687 22.683 69.9817C24.8842 69.9947 27.037 70.0009 27.4669 69.9954C30.7235 69.9536 47.3978 69.8873 63.2682 69.853C65.5525 69.848 66.4485 69.7863 66.6334 69.6211C66.8369 69.4394 67.2758 68.7806 67.7247 67.9832C67.9667 67.5533 68.322 66.9483 68.5144 66.6387C68.7067 66.3292 68.9243 65.9634 68.9979 65.8258C69.1628 65.5175 69.6476 64.7088 70.3101 63.6372C70.5864 63.1901 70.9565 62.571 71.1324 62.2615C71.3083 61.952 71.5807 61.5158 71.7377 61.2923C72.1094 60.7629 72.1631 60.6766 72.2784 60.4251C72.3314 60.3092 72.5529 59.9153 72.7704 59.5496C72.988 59.184 73.2324 58.7682 73.3137 58.6257C73.3949 58.4832 73.7358 57.9126 74.0711 57.3578C74.4064 56.8031 74.6808 56.3325 74.6808 56.3122C74.6808 56.2919 74.7793 56.141 74.8997 55.9771C75.0201 55.8131 75.1185 55.6493 75.1185 55.6131C75.1185 55.5769 75.2485 55.3575 75.4073 55.1255C75.5661 54.8935 75.7891 54.5024 75.9028 54.2562C76.0165 54.0101 76.2522 53.6309 76.4267 53.4136C76.6011 53.1962 76.9125 52.7 77.1187 52.3108C77.3249 51.9216 77.6184 51.4084 77.771 51.1703C78.1662 50.5538 78.3078 50.2563 78.3078 50.0422C78.3078 49.7858 78.1906 49.7406 77.665 49.7943C77.4166 49.8197 74.5682 49.8559 71.3352 49.8749C68.1021 49.8939 65.4006 49.9098 65.3318 49.9103C64.9659 49.9127 62.0477 49.9146 59.5473 49.914C57.2401 49.9133 53.8629 49.9218 52.7379 49.931C52.6076 49.932 52.4955 49.891 52.4469 49.8245C52.3231 49.6552 52.2765 48.9312 52.3225 47.8932C52.374 46.7337 52.424 43.5766 52.414 42.1263C52.41 41.5417 52.4027 40.0643 52.398 38.8434C52.387 36.0409 52.3639 36.1416 53.2187 35.2696C53.9281 34.5459 54.0432 34.3059 53.9189 33.8096C53.8758 33.6377 53.8106 33.4594 53.774 33.4135C53.6804 33.2961 53.2221 33.3741 52.844 33.5718C52.3848 33.8119 52.2646 33.7098 52.4448 33.2325C52.4938 33.1028 52.5497 32.6731 52.5692 32.2776C52.6127 31.3921 52.7467 30.4203 52.8538 30.2129C52.9817 29.9652 53.2443 29.7138 53.3752 29.7138C53.4415 29.7138 53.6624 29.8582 53.866 30.0346C54.0697 30.2111 54.3269 30.3882 54.4374 30.4283C54.5479 30.4684 54.8699 30.6194 55.1529 30.7641C55.8842 31.1377 55.9577 31.1229 56.1068 30.572C56.1986 30.2327 56.2501 30.1782 56.3686 30.2947C56.4144 30.3397 56.7284 30.4142 57.0664 30.4602C57.8458 30.5663 57.8643 30.5526 57.793 29.9208C57.7651 29.6735 57.7122 29.4151 57.6755 29.3465C57.6388 29.2779 57.6088 29.1496 57.6088 29.0613C57.6088 28.8913 57.6755 28.8682 58.087 28.8959C58.2497 28.9069 58.3148 28.8677 58.4619 28.6706C58.7054 28.344 58.7182 28.3384 59.1145 28.3798C59.548 28.4251 59.8478 28.2986 60.1251 27.9537C60.3469 27.6776 60.5629 27.6395 60.8087 27.8328C60.9989 27.9824 61.5531 28.0879 61.8258 28.0264C61.9387 28.0009 62.1758 27.8988 62.3527 27.7995C62.6647 27.6244 62.8076 27.4107 62.7869 27.15C62.7575 26.7799 62.8541 26.7611 63.587 26.9937C63.8579 27.0797 64.199 27.15 64.3449 27.15C64.6848 27.15 65.0791 26.9921 65.2 26.8076C65.3516 26.5762 65.3732 26.1023 65.2524 25.6549L65.1442 25.2542L64.2375 24.8296C62.3598 23.9503 61.7807 23.7894 60.7107 23.8496C60.122 23.8829 59.8269 24.0212 59.1842 24.5651C58.9673 24.7487 58.7385 24.8989 58.6757 24.8989C58.6129 24.8989 58.4883 24.8027 58.3986 24.6851C58.3089 24.5675 58.1437 24.4418 58.0316 24.4058C57.575 24.2591 56.8202 24.14 56.5777 24.1764C56.2922 24.2191 55.9203 24.4206 55.9203 24.5325C55.9203 24.5728 55.8518 24.6954 55.7682 24.8051C55.5285 25.1194 54.3825 25.4621 54.1957 25.2754C54.1621 25.2418 53.8334 25.2075 53.4654 25.1993L52.7962 25.1844L52.5886 25.3856C52.4745 25.4962 52.3636 25.5867 52.3421 25.5867C52.3009 25.5867 52.288 25.4278 52.1648 23.4067C52.1021 22.376 52.1027 22.0125 52.168 21.4996L52.2488 20.866L52.6619 20.4374C53.0654 20.0186 53.395 19.8044 53.8756 19.6488C54.2079 19.5412 54.394 19.605 54.5196 19.8695C54.6306 20.1034 54.9418 20.2869 55.35 20.3593C55.4662 20.3798 55.6727 20.4973 55.8087 20.6201C55.9556 20.7529 56.094 20.829 56.1496 20.8077C56.2011 20.7879 56.2779 20.7718 56.3204 20.7718C56.3628 20.7718 56.443 20.6761 56.4988 20.5591C56.6166 20.312 57.0056 19.9925 57.1302 20.0403C57.1773 20.0584 57.2337 20.1845 57.2554 20.3205C57.3145 20.6897 57.3945 20.7279 58.004 20.6771L58.5288 20.6334L58.6671 20.8277C58.838 21.0676 59.0418 21.0799 59.5906 20.8831C59.977 20.7446 59.9796 20.7444 60.7046 20.851C61.4103 20.9547 61.4382 20.9544 61.6661 20.8381C62.017 20.6591 62.0848 20.5536 62.0022 20.3143C61.9644 20.2048 61.9149 19.9425 61.892 19.7314L61.8505 19.3476L62.1841 19.1883C62.7396 18.923 62.8816 18.7547 62.9127 18.3245C62.9358 18.0056 62.9172 17.9222 62.7755 17.708C62.6169 17.4684 62.5615 17.1241 62.6594 16.9865C62.7132 16.9109 63.1528 16.7991 63.7683 16.7045C64.3043 16.6222 64.5153 16.4618 64.464 16.1757C64.4454 16.0725 64.4069 15.8473 64.3783 15.6752C64.3497 15.503 64.3 15.3201 64.2677 15.2687C64.2355 15.2173 64.1912 15.0204 64.1695 14.8313C64.1477 14.6421 64.0848 14.3044 64.0297 14.0809C63.9744 13.8573 63.907 13.5619 63.8796 13.4243L63.8299 13.1742L63.5022 13.1943C63.3219 13.2053 63.1729 13.1913 63.171 13.1631C63.1691 13.1348 63.1537 12.9371 63.1367 12.7239C63.0944 12.1936 63.2038 12.0799 63.7562 12.0799C64.0891 12.0799 64.1986 12.1101 64.4597 12.274C64.6298 12.3807 64.8253 12.5197 64.8941 12.5828C65.0193 12.6978 65.4448 12.8333 65.7383 12.8517C65.8804 12.8606 65.8948 12.8388 65.896 12.6114C65.8979 12.2443 65.9852 12.0988 66.5141 11.5809C67.2642 10.8464 67.3642 10.5248 67.0894 9.73025C66.8818 9.12995 66.8584 9.07836 66.7934 9.07836C66.7619 9.07836 66.6255 9.00514 66.4903 8.91565C66.2709 8.77052 66.1952 8.75532 65.7881 8.77496C65.2426 8.80128 65.1782 8.70073 65.5983 8.47856C65.9994 8.26645 66.6678 7.71305 66.7763 7.50319C66.8536 7.35368 66.8596 7.25907 66.8074 7.01544C66.714 6.57985 66.3311 5.92233 65.9794 5.59335C65.7697 5.39725 65.6549 5.22954 65.6087 5.05208C65.572 4.91063 65.4876 4.69089 65.4212 4.5637C65.3548 4.43651 65.3006 4.28875 65.3006 4.23541C65.3006 4.18201 65.2452 4.08302 65.1776 4.01536C65.0652 3.90299 65.0338 3.89962 64.8155 3.97666C64.6841 4.02306 64.3743 4.16281 64.1272 4.28725C63.88 4.41175 63.6351 4.51355 63.583 4.51355C63.5309 4.51355 63.2981 4.3818 63.0656 4.22072C62.8331 4.0597 62.4954 3.83071 62.3151 3.7119C62.0061 3.50817 61.8629 3.27518 61.8615 2.97315C61.8613 2.93419 61.7524 2.80406 61.6196 2.68407C61.3532 2.44344 60.8882 2.32495 60.2103 2.32495C59.8068 2.32495 59.668 2.38035 59.3734 2.65924C59.194 2.82914 59.1237 2.85371 58.8129 2.85496C58.4746 2.8564 58.4515 2.84627 58.3302 2.64311C58.1798 2.39123 57.7931 1.98371 57.4778 1.74484C57.1199 1.4737 56.6101 1.50178 55.5789 1.84952C55.1304 2.00078 54.6437 2.14179 54.4975 2.16299C54.1756 2.20951 53.8465 2.08789 53.7034 1.86953C53.6482 1.78524 53.4651 1.59995 53.2965 1.45782C53.0241 1.22808 52.9359 1.19181 52.5038 1.13172C52.0193 1.06437 52.0174 1.06462 51.9002 1.22558C51.7062 1.49177 51.3676 1.40436 51.2342 1.05362C51.1708 0.886969 51.1698 0.886719 50.4925 0.886719C49.649 0.886719 49.3069 0.989271 49.0442 1.32106C48.9415 1.45057 48.832 1.6239 48.8007 1.70626C48.7539 1.82945 48.6722 1.86953 48.3396 1.93256C47.79 2.0368 47.6182 1.97427 47.15 1.49959C46.8498 1.19519 46.681 1.07788 46.4234 0.994899C46.0761 0.882905 45.7075 0.866709 45.3832 0.94925ZM61.3043 4.21847C60.7091 4.46284 60.7189 4.7386 61.3206 4.67501C61.6998 4.63493 61.7986 4.55476 61.7986 4.28706C61.7986 4.03725 61.759 4.03175 61.3043 4.21847ZM40.2769 8.24263C39.7929 8.39101 39.8186 8.56617 40.4085 9.14089C40.6026 9.33005 40.8946 9.64509 41.0574 9.84094C41.4167 10.2732 41.8318 10.5066 42.0837 10.418C42.1766 10.3853 42.3153 10.2656 42.3919 10.1519C42.5624 9.89884 42.4957 9.68448 42.2205 9.60131C42.1222 9.57167 41.8438 9.35394 41.6019 9.11751C41.2397 8.76358 41.1621 8.65265 41.1621 8.48906C41.1621 8.37982 41.1283 8.2567 41.087 8.21543C40.9899 8.11831 40.6445 8.12994 40.2769 8.24263ZM43.6361 8.19648C43.4985 8.41922 44.0054 9.13864 44.4357 9.3313C44.7456 9.47006 44.8287 9.43898 44.8801 9.16509C44.9381 8.85575 44.8767 8.72187 44.5881 8.52883C44.4487 8.4356 44.2609 8.31016 44.171 8.25013C43.9967 8.13388 43.6937 8.10349 43.6361 8.19648ZM38.1797 8.93054C38.1267 9.06886 38.2371 9.23025 38.4016 9.2547C38.5664 9.27921 38.6328 9.13502 38.5382 8.95818C38.4553 8.80335 38.2351 8.78634 38.1797 8.93054ZM38.4568 9.50045C38.4437 9.52621 38.4449 9.6958 38.4592 9.8772C38.4821 10.1663 38.5079 10.2188 38.6679 10.3015C38.8188 10.3795 38.8937 10.383 39.0995 10.3213C39.4313 10.2219 39.4365 10.0362 39.1146 9.78928C38.7319 9.4957 38.5086 9.39771 38.4568 9.50045ZM50.38 12.3435C49.9352 12.8493 49.126 14.0683 49.0605 14.331C49.0392 14.417 48.9557 14.5744 48.8752 14.6808C48.7562 14.8382 48.7288 14.9511 48.7288 15.2853C48.7288 15.6857 48.7348 15.7009 48.9633 15.8805C49.2383 16.0966 49.6025 16.2921 49.6472 16.2475C49.6643 16.2303 49.6876 15.9116 49.699 15.5394C49.729 14.5471 49.7875 14.3285 50.286 13.3443C50.5348 12.8532 50.7291 12.4033 50.7178 12.3445C50.6868 12.1834 50.5212 12.1829 50.38 12.3435ZM47.7233 12.5548C47.6543 12.638 47.6559 12.6821 47.7334 12.8201C47.8544 13.0356 48.0138 13.0657 48.0619 12.8821C48.1514 12.5397 47.9208 12.3169 47.7233 12.5548ZM56.3893 12.6328C56.2037 12.6747 56.2016 12.68 56.1874 13.1298C56.1737 13.5639 56.1803 13.5878 56.3341 13.6579C56.4649 13.7175 56.505 13.7142 56.5474 13.6403C56.7071 13.3624 56.7819 13.3052 56.9076 13.3647C57.0691 13.4411 57.7964 14.3139 57.7964 14.4313C57.7964 14.5289 57.9036 14.7388 58.0406 14.9094C58.1787 15.0815 58.4134 15.0489 58.4901 14.8471C58.5891 14.5869 58.4588 13.2961 58.3195 13.1569C58.2137 13.051 57.6936 12.8944 57.4452 12.8935C57.3381 12.8931 57.1786 12.8363 57.0907 12.7672C56.9049 12.6211 56.6544 12.5731 56.3893 12.6328ZM53.0002 12.841C52.7694 12.9195 51.7133 14.0279 51.5337 14.3804C51.365 14.7113 51.3885 14.8398 51.6679 15.1127C51.8055 15.247 51.9181 15.4031 51.9181 15.4596C51.9181 15.5161 51.976 15.6147 52.0468 15.6788C52.2313 15.8457 52.3229 15.7659 52.7757 15.0432C53.0355 14.6288 53.3933 14.1867 53.8545 13.7108C54.234 13.3191 54.5445 12.9778 54.5445 12.9526C54.5445 12.8355 53.2843 12.7444 53.0002 12.841ZM46.555 13.6041C46.4996 13.7256 46.512 13.7882 46.6232 13.9489C46.7651 14.1541 47.0087 14.2626 47.1069 14.1644C47.1812 14.0901 47.0779 13.7257 46.9387 13.572C46.7945 13.4127 46.6362 13.4259 46.555 13.6041ZM59.7642 14.0982C59.7436 14.1802 59.7356 14.3716 59.7465 14.5236C59.7643 14.7726 59.7832 14.8019 59.9374 14.8197C60.2028 14.8503 60.4342 14.5668 60.4102 14.2405L60.3916 13.9871L60.0965 13.9681C59.8305 13.951 59.7979 13.9638 59.7642 14.0982ZM47.5895 15.4286C47.5681 15.4499 47.2881 15.4915 46.9672 15.5212C45.9526 15.6147 45.7313 15.7353 45.9366 16.0829C45.9934 16.179 46.04 16.3376 46.0402 16.4355C46.0407 16.6489 46.3126 16.8323 46.6284 16.8323C46.7948 16.8323 46.8594 16.7896 46.9835 16.5978C47.1101 16.402 47.1799 16.3573 47.4057 16.3271C47.7301 16.2838 47.7886 16.206 47.7898 15.8161C47.7903 15.6528 47.7923 15.498 47.7941 15.4722C47.7983 15.4116 47.6402 15.3779 47.5895 15.4286ZM58.9345 16.8448C58.7496 17.0297 58.8974 17.3175 59.2452 17.4497C59.4741 17.5368 60.2283 17.4143 60.3871 17.2643C60.5057 17.1523 60.5049 17.1493 60.3362 17.0851C60.2418 17.0492 60.1132 17.0199 60.0504 17.0199C59.9876 17.0199 59.8136 16.9642 59.6636 16.8962C59.3542 16.7558 59.0452 16.734 58.9345 16.8448ZM57.2165 16.9326C57.1484 17.0007 57.2307 17.0824 57.3675 17.0824C57.441 17.0824 57.4832 17.0496 57.4681 17.0042C57.4384 16.915 57.2795 16.8697 57.2165 16.9326ZM56.5215 17.0392C56.2592 17.2048 55.9686 17.5089 56.0095 17.5752C56.0757 17.6822 56.1983 17.6591 56.3315 17.5145C56.3977 17.4426 56.5488 17.2878 56.6673 17.1706C56.8463 16.9935 56.8622 16.958 56.7611 16.961C56.6942 16.963 56.5864 16.9982 56.5215 17.0392ZM43.5235 18.6503C43.3222 18.7676 43.2771 18.9357 43.3806 19.1834C43.433 19.3088 43.4759 19.4593 43.4759 19.5179C43.4759 19.7211 43.7429 19.8963 44.0528 19.8963C44.297 19.8963 44.3646 19.8674 44.5021 19.7039C44.6967 19.4727 44.698 19.4562 44.539 19.2539C44.4702 19.1665 44.4139 19.0739 44.4139 19.0482C44.4139 19.0225 44.3421 18.9073 44.2544 18.7923C44.1233 18.6206 44.0535 18.5835 43.8635 18.585C43.7363 18.5861 43.5833 18.6154 43.5235 18.6503ZM71.6545 52.3957C71.6362 52.414 67.3808 52.4393 62.1979 52.4519C53.2308 52.4737 52.7652 52.4804 52.5808 52.5884L52.3871 52.7019L52.3795 53.4484C52.3659 54.7802 52.5276 56.4852 52.7369 57.2171C52.8024 57.4463 52.8561 57.7537 52.8561 57.9004C52.8561 58.2213 53.0231 59.2914 53.1081 59.5148C53.1414 59.6027 53.1688 59.7976 53.1688 59.9478C53.1688 60.0981 53.1988 60.3001 53.2355 60.3966C53.3062 60.5826 53.3221 60.7584 53.3903 62.1146C53.4445 63.1902 53.4996 63.1391 52.2308 63.1922C51.732 63.2131 50.9055 63.2562 50.394 63.2881C49.8826 63.32 49.4263 63.3316 49.3802 63.3139C49.2572 63.2666 49.2196 63.0949 49.2143 62.5559C49.2102 62.133 49.2374 62.0106 49.4363 61.5572C49.5609 61.2729 49.7763 60.825 49.915 60.5618L50.1671 60.0833V59.0963C50.1671 58.5535 50.14 57.9743 50.1069 57.8092C50.0739 57.6442 50.0296 56.9745 50.0086 56.321C49.9876 55.6676 49.9545 54.753 49.935 54.2887C49.8859 53.1158 49.8856 53.1623 49.9425 52.8568C49.9888 52.6077 49.9831 52.5856 49.8821 52.6243C49.8208 52.6479 49.7512 52.6358 49.7275 52.5975C49.6972 52.5483 48.996 52.5275 47.3462 52.5267C46.0602 52.5261 43.9105 52.5219 42.5691 52.5173C38.2035 52.5024 37.6085 52.506 37.5669 52.5477C37.486 52.6286 37.7215 52.9532 38.2492 53.4881C38.8139 54.0606 38.9123 54.2792 38.6648 54.4116C38.5932 54.4499 38.0422 54.4763 37.3141 54.4763C35.7086 54.4763 35.4763 54.5662 35.8153 55.0566C35.8577 55.1179 36.0919 55.343 36.3357 55.5569C36.7752 55.9424 37.004 56.2092 37.9102 57.3932C38.1682 57.7302 38.4681 58.0912 38.5766 58.1953C38.6851 58.2994 38.8961 58.5014 39.0456 58.6441C39.195 58.7869 39.4932 59.114 39.7081 59.3709C40.0465 59.7754 40.099 59.8722 40.099 60.0918C40.099 60.5295 40.0127 60.566 39.1012 60.5141C36.7954 60.3829 35.9652 60.345 34.2832 60.2943C33.2686 60.2636 32.2662 60.2187 32.0557 60.1945C31.7098 60.1548 31.6593 60.1642 31.5316 60.2918C31.379 60.4445 31.3777 60.6001 31.508 63.0469C31.5405 63.6573 31.5311 63.7852 31.4478 63.8685C31.3403 63.9759 30.0438 64.047 27.8498 64.0657L26.763 64.0749L26.6353 63.905C26.5142 63.7439 26.5083 63.6599 26.5216 62.2921C26.539 60.5139 26.5154 60.3125 26.2831 60.2614C26.1894 60.2409 26.0388 60.2522 25.9483 60.2866C25.8577 60.3211 25.0719 60.3655 24.202 60.3854C23.3322 60.4053 22.3953 60.4473 22.1202 60.4789C21.845 60.5104 20.9445 60.5673 20.1191 60.6054C19.2936 60.6434 18.4471 60.701 18.2379 60.7333C18.0287 60.7656 17.5574 60.792 17.1904 60.792C16.6637 60.792 16.5233 60.7738 16.5233 60.7054C16.5233 60.4932 16.7149 60.2255 17.1779 59.7906C17.4519 59.5331 18.071 58.94 18.5536 58.4725C20.0276 57.0448 21.1645 55.9633 21.574 55.5991C21.8238 55.3771 21.9638 55.2042 21.9638 55.118C21.9638 54.9875 21.9454 54.9843 21.3229 55.0105C19.8223 55.0734 16.9622 55.0916 16.9294 55.0385C16.8697 54.9419 17.0178 54.7702 17.4413 54.4449C18.2346 53.8357 18.6228 53.5124 19.0044 53.1433C19.3247 52.8333 19.3764 52.7555 19.3077 52.6869C19.2418 52.6209 18.6571 52.6029 16.4202 52.5979C14.6703 52.5939 13.5531 52.6153 13.4496 52.6547C13.2901 52.7152 12.9588 53.0229 12.9588 53.1104C12.9588 53.1336 12.8462 53.2734 12.7087 53.4209C12.5711 53.5684 12.4585 53.7127 12.4585 53.7416C12.4585 53.7705 12.3223 53.9968 12.1558 54.2446C11.8319 54.7266 11.1555 55.9288 11.0052 56.2897C10.9551 56.4101 10.7713 56.6946 10.5969 56.9219C10.4224 57.1492 10.1495 57.5822 9.99027 57.884C9.83106 58.1859 9.52489 58.7034 9.30983 59.034C8.80392 59.812 8.54109 60.2562 8.17726 60.9483C8.0146 61.2579 7.76052 61.6808 7.61269 61.8882C7.46492 62.0956 7.28226 62.3769 7.20678 62.5135C7.1313 62.65 6.91486 63.015 6.72588 63.3246C6.53684 63.6341 6.17026 64.2531 5.91118 64.7002C5.6521 65.1473 5.28158 65.7735 5.08778 66.0916C4.36256 67.2824 4.30547 67.3942 4.36957 67.498C4.39883 67.5453 5.19722 67.5512 7.07464 67.5179C8.53965 67.4918 9.80861 67.475 9.89459 67.4804C10.267 67.5039 15.1339 67.4758 16.6171 67.4417C17.5113 67.4211 18.2852 67.4035 18.3368 67.4026C18.3884 67.4017 18.9371 67.4332 19.5562 67.4726C20.4632 67.5304 20.9066 67.5272 21.8388 67.4566C22.6979 67.3914 23.2973 67.383 24.1673 67.424C24.8117 67.4544 27.4007 67.4647 29.9205 67.447C32.4404 67.4293 41.2277 67.4052 49.4479 67.3935C57.6682 67.3818 64.5565 67.3515 64.7553 67.3263C65.0796 67.2851 65.1385 67.2538 65.3273 67.0221C65.443 66.88 65.6442 66.5668 65.7745 66.3261C65.9047 66.0853 66.1278 65.7195 66.2704 65.5132C66.4129 65.3068 66.6898 64.8566 66.8857 64.5126C67.2748 63.8294 67.77 63.0181 68.1259 62.4804C68.2511 62.2912 68.4992 61.8476 68.6773 61.4945C68.8554 61.1414 69.0351 60.8178 69.0768 60.7754C69.1184 60.7329 69.2474 60.5294 69.3633 60.323C69.4791 60.1167 69.8242 59.5588 70.1299 59.0833C70.4357 58.6078 70.8222 57.955 70.9888 57.6327C71.1555 57.3104 71.4492 56.8051 71.6418 56.5097C71.8343 56.2144 71.9918 55.9581 71.9918 55.9402C71.9918 55.9223 72.1276 55.6911 72.2935 55.4265C72.4595 55.1619 72.7308 54.7061 72.8964 54.4138C73.0621 54.1215 73.3307 53.7275 73.4934 53.5383C73.8506 53.1231 74.0555 52.7548 74.0555 52.5276V52.3593L72.8716 52.3609C72.2204 52.3618 71.6727 52.3774 71.6545 52.3957Z" fill="black"/>
</svg>
