<svg width="69" height="80" viewBox="0 0 69 80" fill="none" xmlns="http://www.w3.org/2000/svg">
<path fill-rule="evenodd" clip-rule="evenodd" d="M3.53601 0.703334C3.52433 0.72726 3.49662 6.57109 3.47466 13.6893C3.4527 20.8077 3.37915 26.7216 3.31153 26.8314C3.23607 26.9538 2.66007 27.0312 1.82561 27.0312C0.943403 27.0312 0.402434 27.1082 0.291243 27.2495C0.181097 27.3894 0.102148 35.0525 0.0711258 48.6C0.0446351 60.2227 0.0143099 71.9208 0.00385305 74.5958C-0.0130522 78.8871 0.0174467 79.477 0.263357 79.6089C0.416725 79.6911 15.9452 79.8127 34.771 79.879L69 79.9999L68.9937 56.0916C68.9904 42.942 68.9707 32.0902 68.9502 31.9765C68.9219 31.82 66.6835 31.7776 59.7195 31.8018L50.5262 31.834L50.4795 36.2818C50.4539 38.7281 50.3603 40.8024 50.2714 40.8914C50.0684 41.0949 47.0962 41.0362 46.882 40.8244C46.7894 40.7329 46.7169 34.079 46.7077 24.8115L46.692 8.95535L37.2373 8.94854L27.7825 8.9419L27.7696 17.2442C27.7625 21.8107 27.7037 25.9004 27.6389 26.3326L27.5211 27.1185L24.6742 27.1348C22.4854 27.1473 21.7724 27.0962 21.5896 26.913C21.3934 26.7163 21.3507 24.4314 21.3447 13.7983C21.3407 6.71604 21.3367 0.862786 21.3359 0.790657C21.3343 0.676438 3.59195 0.58929 3.53601 0.703334ZM7.21735 7.98869C7.21735 9.98506 7.2543 10.2727 7.52914 10.4201C7.82489 10.5787 17.262 10.5617 17.4213 10.4023C17.552 10.2711 17.5625 6.14181 17.4327 5.93118C17.3391 5.77959 15.9581 5.7244 12.2612 5.7244H7.21735V7.98869ZM32.2314 12.004C32.1085 12.2032 32.1432 14.3303 32.2781 14.8566C32.3476 15.1284 32.5313 15.1626 33.6866 15.1186L35.0152 15.068L35.0656 13.5398C35.1105 12.1732 35.083 12.0103 34.8041 11.9993C34.6326 11.9924 34.0098 11.9484 33.4198 11.9015C32.7528 11.8485 32.3034 11.8871 32.2314 12.004ZM40.5167 12.2595C40.229 12.607 40.3222 14.5978 40.6413 14.9176C40.8228 15.0994 41.2184 15.156 42.05 15.1191L43.2064 15.068L43.2568 13.5398L43.3071 12.0117H42.0145C41.111 12.0117 40.6601 12.0862 40.5167 12.2595ZM7.4352 16.1361C7.27643 16.2061 7.21735 16.8691 7.21735 18.578V20.9238L12.3151 20.8776L17.4128 20.8313L17.4614 18.5172L17.51 16.2032L15.8929 16.196C15.0035 16.192 12.7856 16.1553 10.9644 16.1143C9.14315 16.0734 7.55511 16.0832 7.4352 16.1361ZM32.2622 18.2343C32.1948 18.3019 32.1395 18.9624 32.1395 19.7024V21.0475L32.7931 21.1558C33.8377 21.3288 34.6969 21.2854 34.8878 21.0496C34.9849 20.9296 35.0926 20.2418 35.1269 19.5214L35.1895 18.2116L33.7872 18.1615C33.0158 18.1339 32.3297 18.1665 32.2622 18.2343ZM40.4536 18.2339C40.386 18.3017 40.3308 18.9308 40.3308 19.6316C40.3308 21.1296 40.4677 21.2695 41.9314 21.2653C43.269 21.2614 43.3176 21.2001 43.2578 19.5936L43.2064 18.2116L41.8914 18.1613C41.1682 18.1335 40.5212 18.1663 40.4536 18.2339ZM41.3764 24.0441L40.4179 24.1495L40.3667 25.5196C40.3346 26.3794 40.3912 26.9811 40.5188 27.1351C40.7501 27.4144 43.0321 27.4884 43.1965 27.2219C43.3223 27.0181 43.4087 24.2945 43.2932 24.1785C43.1138 23.9985 42.3057 23.9417 41.3764 24.0441ZM32.2499 24.601C32.0472 25.6164 32.1256 26.8176 32.4133 27.1061C32.7257 27.4189 33.9611 27.4746 34.6623 27.2074C35.1074 27.038 35.1154 27.0054 35.0659 25.5919L35.0152 24.1495L33.6877 24.0989L32.3602 24.0484L32.2499 24.601ZM7.28392 26.6851C7.10598 26.8634 7.15496 31.0306 7.33725 31.2227C7.38292 31.2707 9.66861 31.31 12.4165 31.31H17.4128V28.9523V26.5946L12.4397 26.5483C9.14577 26.5177 7.40488 26.5638 7.28392 26.6851ZM32.2131 30.4095C32.1636 30.5386 32.1465 31.2262 32.1749 31.9377L32.2267 33.2311H33.6209H35.0152L35.0656 31.703L35.1159 30.1748H33.7095C32.6927 30.1748 32.2779 30.2398 32.2131 30.4095ZM40.4536 30.2845C40.2633 30.4752 40.3088 32.6015 40.5111 32.9807C40.6629 33.2648 40.8838 33.3185 41.9021 33.3185C43.3157 33.3185 43.3474 33.2736 43.2592 31.3919L43.2064 30.2621L41.8914 30.2119C41.1682 30.1841 40.5212 30.2169 40.4536 30.2845ZM54.2732 36.88C54.2732 38.5673 54.2644 38.5578 55.8604 38.5578C56.8118 38.5578 56.9099 38.5213 57.0661 38.1099C57.2894 37.5213 57.2834 36.1786 57.0556 35.752C56.9019 35.4643 56.6822 35.4142 55.5743 35.4142H54.2732V36.88ZM62.4645 36.873C62.4645 38.5648 62.458 38.5578 64.0258 38.5578C65.3345 38.5578 65.4565 38.3993 65.3917 36.7838L65.3401 35.5015L63.9023 35.4509L62.4645 35.4001V36.873ZM32.2624 36.3971C32.0226 36.6374 32.1258 39.0276 32.3853 39.2433C32.5355 39.3684 33.0943 39.4276 33.8231 39.3958L35.0152 39.3437V37.8592V36.3748L33.7002 36.3245C32.977 36.2967 32.33 36.3295 32.2624 36.3971ZM40.5467 36.4902C40.2649 36.7726 40.2595 38.9405 40.5399 39.2215C40.6645 39.3464 41.2656 39.4311 42.0281 39.4311H43.3071L43.2568 37.9029L43.2064 36.3748L41.9845 36.3243C41.1839 36.2913 40.6882 36.3484 40.5467 36.4902ZM7.19887 37.117C7.07653 37.4357 7.06346 38.2435 7.15949 39.5184L7.30449 41.4395H12.3586H17.4128L17.4618 39.1827C17.4984 37.4946 17.4546 36.8903 17.2875 36.7841C17.1648 36.7059 14.8859 36.6409 12.2236 36.6393L7.38291 36.6367L7.19887 37.117ZM54.2054 41.67C54.062 41.9028 54.238 44.3557 54.4108 44.5288C54.4979 44.6161 55.1105 44.6642 55.7719 44.6353L56.9746 44.5831L57.1339 43.2139C57.2639 42.0965 57.2479 41.816 57.0468 41.6885C56.7372 41.4922 54.3248 41.4765 54.2054 41.67ZM62.5807 41.6433C62.5167 41.7072 62.4645 42.3669 62.4645 43.1091C62.4645 44.1785 62.5216 44.4804 62.7402 44.5644C63.2271 44.7516 65.002 44.6774 65.2181 44.4609C65.342 44.3367 65.4272 43.7392 65.4272 42.9951C65.4272 42.0106 65.3676 41.716 65.1515 41.6328C64.7786 41.4894 62.7259 41.4976 62.5807 41.6433ZM32.3487 42.435C32.0711 42.7132 32.0711 45.0559 32.3487 45.3341C32.4656 45.4513 33.0265 45.5437 33.6209 45.5437C34.2154 45.5437 34.7762 45.4513 34.8932 45.3341C35.0166 45.2104 35.1023 44.6161 35.1023 43.8845C35.1023 43.1529 35.0166 42.5586 34.8932 42.435C34.6203 42.1615 32.6216 42.1615 32.3487 42.435ZM40.4935 42.5012C40.3951 42.6201 40.3384 43.3283 40.3667 44.0862L40.4179 45.4563H41.8121H43.2064L43.2578 44.0758C43.286 43.3164 43.24 42.6259 43.1555 42.5412C42.9035 42.2886 40.6971 42.2554 40.4935 42.5012ZM8.74231 47.0786L7.21735 47.1291L7.19887 47.8645C7.14572 49.9702 7.22258 51.5567 7.3857 51.7202C7.67501 52.0101 17.1639 51.9167 17.3504 51.622C17.531 51.3368 17.5416 47.6263 17.3628 47.3443C17.2279 47.1317 12.0028 46.9707 8.74231 47.0786ZM54.2035 48.469C54.1464 49.0214 54.1614 49.7483 54.2366 50.0845L54.3736 50.6957L55.7022 50.7464L57.0307 50.7972L57.1517 49.5031C57.3272 47.6261 57.2038 47.4648 55.5913 47.4648H54.3074L54.2035 48.469ZM62.5014 49.0731L62.5516 50.6957H63.9458H65.3401V49.1239V47.5521L63.8957 47.5013L62.4512 47.4504L62.5014 49.0731ZM32.1395 49.8092C32.1395 51.1535 32.1754 51.314 32.5167 51.497C32.9303 51.7188 34.6971 51.6082 34.9606 51.3442C35.0473 51.2574 35.0948 50.5653 35.0666 49.8059L35.0152 48.4253L33.5774 48.3747L32.1395 48.3239V49.8092ZM40.447 48.4545C40.2793 48.6223 40.3088 51.0019 40.4819 51.2754C40.6579 51.5536 42.7554 51.6809 43.0757 51.4329C43.3634 51.2101 43.3706 48.8343 43.0844 48.5476C42.8645 48.3272 40.6518 48.2491 40.447 48.4545ZM54.3693 53.7375C54.1756 54.0515 54.0571 55.4826 54.1736 56.1036L54.2917 56.7353L55.6332 56.6845L56.9746 56.6337L57.0248 55.2161L57.0752 53.7983L56.5237 53.6879C55.7119 53.5252 54.4829 53.5534 54.3693 53.7375ZM62.5952 53.6774C62.5232 53.7505 62.4645 54.4162 62.4645 55.1569C62.4645 56.8251 62.5938 56.9662 64.0288 56.8621C64.6022 56.8206 65.1318 56.7261 65.2057 56.652C65.3842 56.4732 65.3791 53.996 65.2 53.8159C65.0133 53.628 62.7616 53.5084 62.5952 53.6774ZM32.1395 55.9162C32.1395 57.1777 32.1845 57.4082 32.4445 57.4784C32.8998 57.6016 34.0777 57.6086 34.6298 57.4917L35.1159 57.3888L35.0656 55.9634L35.0152 54.5379L33.5774 54.4873L32.1395 54.4365V55.9162ZM40.4043 54.6853C40.3548 54.8144 40.3377 55.502 40.3661 56.2135L40.4179 57.5069L41.61 57.559C42.3388 57.5907 42.8976 57.5315 43.0478 57.4065C43.3592 57.1475 43.3883 54.9648 43.0844 54.6602C42.7838 54.3589 40.5211 54.38 40.4043 54.6853ZM7.39738 57.59C7.19835 57.7139 7.13544 58.2175 7.11278 59.8667C7.08385 61.9649 7.08751 61.9859 7.51031 62.1471C7.74507 62.2365 10.0076 62.3097 12.5381 62.3097C16.9086 62.3097 17.1481 62.2927 17.3196 61.9719C17.4187 61.7861 17.4999 60.7337 17.4999 59.633C17.4999 57.6988 17.4867 57.6288 17.1045 57.5326C16.4475 57.3674 7.67222 57.4192 7.39738 57.59ZM54.8832 59.855L54.1861 59.952L54.2109 61.2342C54.2244 61.9394 54.3248 62.6059 54.4341 62.7154C54.6624 62.9442 56.7846 62.9938 57.0032 62.7754C57.2094 62.5695 57.185 60.2646 56.9746 60.0707C56.7303 59.8456 55.7091 59.7403 54.8832 59.855ZM62.5702 60.1409C62.404 60.5751 62.4467 62.6273 62.6243 62.7374C62.9141 62.9169 64.3488 63.0544 64.7855 62.9445C65.3289 62.8079 65.4767 62.2461 65.3246 60.8978L65.208 59.8646H63.942C62.9484 59.8646 62.6532 59.924 62.5702 60.1409ZM32.2131 60.7979C32.1636 60.927 32.1465 61.6146 32.1749 62.3261L32.2267 63.6195L33.1971 63.6709C33.7307 63.6992 34.3778 63.6422 34.6349 63.5442C35.079 63.3752 35.1023 63.3065 35.1023 62.1743C35.1023 61.4801 35.015 60.8949 34.8932 60.7728C34.5926 60.4715 32.3299 60.4927 32.2131 60.7979ZM40.4536 60.6729C40.2422 60.8847 40.3153 63.2721 40.5399 63.4973C40.8175 63.7755 42.6231 63.7662 43.0072 63.4847C43.2576 63.3013 43.3014 63.0351 43.2583 61.9565L43.2064 60.6505L41.8914 60.6002C41.1682 60.5725 40.5212 60.6053 40.4536 60.6729ZM54.1891 65.9725C54.1265 66.0738 54.1291 66.7743 54.1948 67.5291L54.3144 68.9015L55.34 68.9946C57.0743 69.1523 57.0827 69.1443 57.0246 67.3961L56.9746 65.8899L55.6386 65.8391C54.8351 65.8087 54.2572 65.8618 54.1891 65.9725ZM62.4645 67.2452C62.4645 68.1451 62.5445 68.7819 62.6736 68.9113C62.9556 69.1939 64.9865 69.1869 65.1996 68.9025C65.2896 68.7826 65.358 68.0555 65.3516 67.2871L65.3401 65.8899L63.9023 65.8393L62.4645 65.7884V67.2452ZM32.1395 68.1603V69.8194H33.4364C34.1497 69.8194 34.7832 69.7382 34.8446 69.639C34.9057 69.5397 35.0007 68.8641 35.0554 68.1374C35.1759 66.542 35.141 66.5075 33.4031 66.5038L32.1395 66.5012V68.1603ZM40.4047 66.7348C40.3553 66.8636 40.3382 67.585 40.3665 68.3383C40.4151 69.6341 40.4414 69.7141 40.8536 69.8201C41.0932 69.882 41.7206 69.8874 42.2478 69.8322L43.2064 69.7321L43.258 68.3384C43.301 67.1779 43.259 66.9077 43.0068 66.723C42.5889 66.4168 40.5228 66.4262 40.4047 66.7348ZM7.33272 67.9347C7.04638 68.1523 7.01849 68.4038 7.0713 70.2947C7.10372 71.4587 7.18319 72.4639 7.2482 72.5287C7.46361 72.7437 17.1332 72.7612 17.2889 72.5467C17.3668 72.4395 17.4264 71.4255 17.4217 70.2934C17.4145 68.6608 17.3588 68.2008 17.1514 68.0693C17.0076 67.9783 15.392 67.9025 13.5614 67.901C11.7305 67.8996 9.65223 67.8517 8.94291 67.7948C7.98 67.7174 7.57184 67.753 7.33272 67.9347Z" fill="black"/>
</svg>
