<svg width="64" height="44" viewBox="0 0 64 44" fill="none" xmlns="http://www.w3.org/2000/svg">
<rect width="64" height="44" fill="black"/>
<path d="M36 22.8125C38.5625 23.6875 40 25.5 40 28.1875C40 32.4375 36.0625 35.3125 30.1875 35.3125C25.4375 35.3125 21.5 32.9375 19.875 29.3125L24.25 27C25.25 29.3125 27.375 30.6875 30.125 30.6875C33.0625 30.6875 34.6875 29.625 34.6875 27.625C34.6875 25.9375 33.25 24.9375 30.875 24.9375H27.625V20.8125H30.8125C32.6875 20.8125 34 19.9375 34 18.375C34 16.625 32.5625 15.5 30.0625 15.5C27.5 15.5 25.625 16.8125 24.5625 19.1875L20.0625 17.3125C21.625 13.4375 25.5625 10.9375 30.25 10.9375C35.6875 10.9375 39.25 13.625 39.25 17.75C39.25 20.125 38.0625 21.8125 36 22.8125Z" fill="white"/>
</svg>
