<svg width="83" height="46" viewBox="0 0 83 46" fill="none" xmlns="http://www.w3.org/2000/svg">
<rect y="0.105225" width="83" height="45" fill="black"/>
<path d="M28.75 36L21.6875 25.375L18.5625 28.5V36H13.1875V12.25H18.5625V22.3125L28.0625 12.25H34.75L25.5 21.5625L35.125 36H28.75ZM43.625 31.8125H54.375V36H36.6875V32.75L45.125 25.5C48.125 23 49 21.1875 49 19.3125C49 17.375 47.5625 16.0625 45.5 16.0625C43.125 16.0625 41.5 17.5 41.4375 20.75L36.75 20.0625C37.0625 15 40.5625 11.875 45.8125 11.9375C50.6875 12 54 14.8125 54 18.875C54 22.6875 51.875 25 46.875 29.125L43.625 31.8125ZM66.875 36.3125C60.9375 36.3125 57.0625 32.5 57.0625 26.625C57.0625 20.8125 61 16.9375 66.875 16.9375C72.8125 16.9375 76.6875 20.75 76.6875 26.625C76.6875 32.4375 72.75 36.3125 66.875 36.3125ZM66.875 32.1875C69.75 32.1875 71.5625 30.125 71.5625 26.625C71.5625 23.125 69.75 21.0625 66.875 21.0625C64 21.0625 62.1875 23.125 62.1875 26.625C62.1875 30.125 64 32.1875 66.875 32.1875Z" fill="white"/>
</svg>
